<?xml version="1.0" standalone="no"?>
<!DOCTYPE svg PUBLIC "-//W3C//DTD SVG 20010904//EN"
 "http://www.w3.org/TR/2001/REC-SVG-20010904/DTD/svg10.dtd">
<svg version="1.0" xmlns="http://www.w3.org/2000/svg"
 width="384.000000pt" height="360.000000pt" viewBox="0 0 384.000000 360.000000"
 preserveAspectRatio="xMidYMid meet">

<g transform="translate(0.000000,360.000000) scale(0.100000,-0.100000)"
fill="#000000" stroke="none">
<path d="M1838 3456 c-93 -25 -152 -74 -432 -356 -296 -298 -322 -332 -333
-443 -8 -75 17 -148 77 -228 27 -35 151 -166 277 -291 l228 -228 123 122 123
122 125 -124 125 -125 248 250 c136 138 261 271 278 296 46 67 67 139 60 206
-12 112 -36 144 -346 454 -253 254 -294 290 -351 317 -78 37 -139 45 -202 28z
m147 -183 c44 -22 533 -511 557 -558 26 -50 28 -118 3 -165 -10 -19 -102 -120
-206 -225 l-188 -190 -68 68 -68 67 160 159 c87 87 162 169 166 182 3 14 2 36
-3 49 -5 14 -96 112 -202 218 -183 183 -194 192 -230 192 -37 0 -49 -10 -232
-191 -106 -106 -197 -204 -202 -218 -5 -14 -6 -37 -3 -50 4 -12 78 -94 166
-182 l160 -159 -68 -67 -68 -68 -189 192 c-231 232 -255 274 -215 371 18 42
510 543 560 569 63 34 109 35 170 6z m48 -522 c59 -59 107 -114 107 -121 0 -7
-53 -67 -118 -132 l-117 -119 -118 119 c-64 65 -117 125 -117 132 0 23 212
230 235 230 14 0 59 -38 128 -109z"/>
<path d="M1365 1567 c-25 -78 -45 -145 -45 -149 0 -4 124 -8 276 -8 229 0 275
2 271 14 -3 7 -22 67 -43 132 -21 66 -38 120 -39 121 -1 3 -157 -47 -163 -52
-1 -1 5 -21 13 -45 24 -68 22 -70 -45 -70 -33 0 -60 1 -60 3 0 2 11 36 24 75
l25 72 -37 10 c-20 5 -58 16 -84 24 l-48 14 -45 -141z"/>
<path d="M2622 1577 c-22 -73 -44 -141 -48 -150 -6 -16 16 -17 274 -17 l281 0
-44 131 c-25 73 -46 133 -48 135 -8 9 -157 -49 -157 -61 0 -7 7 -32 15 -55 8
-23 15 -44 15 -46 0 -2 -27 -4 -60 -4 -33 0 -60 4 -60 8 0 5 9 35 20 67 11 32
20 62 20 66 0 5 -32 18 -71 29 -39 12 -77 24 -83 26 -8 3 -27 -44 -54 -129z"/>
<path d="M1930 1440 l0 -250 215 0 215 0 0 50 0 50 -110 0 -110 0 0 68 0 67
112 18 c61 9 113 18 114 20 2 2 -1 30 -7 63 l-10 60 -105 -16 -104 -17 0 69 0
68 -105 0 -105 0 0 -250z"/>
<path d="M3190 1440 l0 -250 213 2 212 3 3 47 3 47 -113 3 -113 3 0 65 0 65
109 17 c60 9 111 19 113 22 3 2 1 30 -2 61 l-8 58 -51 -6 c-28 -4 -77 -9 -108
-13 l-58 -7 0 67 0 66 -100 0 -100 0 0 -250z"/>
<path d="M240 1545 l0 -54 83 -3 83 -3 -108 -315 c-59 -173 -107 -319 -105
-324 3 -8 196 -79 197 -73 1 1 56 162 123 357 l123 355 224 5 225 5 3 53 3 52
-425 0 -426 0 0 -55z"/>
<path d="M1340 995 l0 -345 90 0 90 0 0 95 0 95 60 0 60 0 0 55 0 55 -60 0
-60 0 0 40 0 40 60 0 60 0 0 55 0 54 -57 3 -58 3 0 40 0 40 73 3 72 3 0 -236
0 -235 -25 0 c-24 0 -25 -3 -25 -55 l0 -55 120 0 120 0 0 345 0 345 -260 0
-260 0 0 -345z"/>
<path d="M2590 995 l0 -345 95 0 95 0 0 95 0 95 60 0 60 0 0 55 0 55 -60 0
-60 0 0 40 0 39 58 3 57 3 3 53 3 52 -60 0 -61 0 0 45 0 46 73 -3 72 -3 3
-232 2 -233 -25 0 c-24 0 -25 -3 -25 -55 l0 -55 115 0 115 0 0 345 0 345 -260
0 -260 0 0 -345z"/>
<path d="M697 1216 c-132 -49 -220 -190 -204 -328 31 -255 340 -369 522 -192
65 62 96 135 96 221 0 37 -5 83 -10 101 -22 73 -84 143 -161 184 -56 28 -183
36 -243 14z m148 -190 c44 -19 68 -57 68 -108 0 -35 -6 -47 -36 -75 -57 -51
-125 -42 -168 23 -28 43 -25 87 11 128 27 30 40 37 83 45 4 0 23 -5 42 -13z"/>
<path d="M1930 900 l0 -250 215 0 215 0 0 50 0 50 -110 0 -110 0 0 74 0 74 33
5 c17 4 69 12 115 18 45 7 82 16 82 19 0 13 -20 113 -23 117 -2 1 -44 -4 -93
-12 -49 -8 -95 -15 -101 -15 -9 0 -13 19 -13 60 l0 60 -105 0 -105 0 0 -250z"/>
<path d="M3190 900 l0 -250 215 0 215 0 0 50 0 49 -112 3 -113 3 -3 71 -3 72
33 5 c18 3 71 11 116 18 l84 12 -7 61 c-4 33 -8 62 -10 64 -2 2 -43 -4 -91
-12 -131 -23 -124 -26 -124 44 l0 60 -100 0 -100 0 0 -250z"/>
<path d="M815 428 c-27 -15 -35 -28 -35 -59 0 -33 25 -55 73 -64 21 -4 47 -15
59 -24 17 -14 19 -21 10 -38 -21 -38 -99 -35 -117 5 -12 27 -35 29 -35 4 0
-68 156 -81 181 -15 17 45 -8 76 -76 94 -62 16 -79 36 -55 64 19 23 77 19 92
-5 13 -21 38 -27 38 -10 0 6 -11 22 -25 35 -26 27 -75 33 -110 13z"/>
<path d="M2870 413 c-33 -29 -47 -75 -42 -130 7 -70 95 -114 156 -79 20 11 32
14 34 7 10 -31 22 -4 22 49 l0 60 -50 0 c-27 0 -50 -4 -50 -10 0 -5 16 -10 35
-10 30 0 35 -3 35 -23 0 -54 -89 -78 -130 -37 -28 28 -28 108 1 144 28 35 81
36 113 1 13 -14 28 -25 34 -25 20 0 -2 42 -32 61 -45 27 -90 24 -126 -8z"/>
<path d="M1000 315 c0 -96 3 -115 15 -115 12 0 15 13 15 55 l0 56 63 -3 62 -3
3 -52 c2 -38 7 -53 18 -53 11 0 14 21 14 115 0 94 -3 115 -14 115 -11 0 -16
-14 -18 -47 l-3 -48 -62 -3 -63 -3 0 51 c0 38 -4 50 -15 50 -12 0 -15 -19 -15
-115z"/>
<path d="M1250 315 c0 -96 3 -115 15 -115 12 0 15 19 15 115 0 96 -3 115 -15
115 -12 0 -15 -19 -15 -115z"/>
<path d="M1430 315 c0 -94 3 -115 15 -115 11 0 15 19 17 90 l3 90 55 -90 c78
-127 90 -124 90 25 0 70 -4 115 -10 115 -6 0 -10 -37 -10 -90 0 -49 -3 -90 -7
-90 -5 0 -32 41 -62 90 -37 63 -59 90 -72 90 -18 0 -19 -9 -19 -115z"/>
<path d="M1670 315 l0 -115 85 0 c50 0 85 4 85 10 0 6 -30 10 -70 10 l-70 0 0
40 0 40 65 0 c51 0 65 3 65 15 0 12 -14 15 -65 15 l-65 0 0 40 0 40 70 0 c40
0 70 4 70 10 0 6 -35 10 -85 10 l-85 0 0 -115z"/>
<path d="M1890 315 c0 -94 3 -115 15 -115 11 0 15 19 17 91 l3 92 55 -89 c39
-63 62 -90 78 -92 22 -3 22 -1 22 112 0 95 -3 116 -15 116 -11 0 -15 -19 -17
-92 l-3 -93 -58 93 c-41 64 -65 92 -78 92 -18 0 -19 -8 -19 -115z"/>
<path d="M2130 316 c0 -95 3 -116 15 -116 11 0 15 19 17 92 l3 93 56 -90 c38
-62 62 -91 77 -93 22 -3 22 -1 22 112 0 95 -3 116 -15 116 -11 0 -15 -19 -17
-92 l-3 -93 -56 90 c-38 62 -62 91 -77 93 -22 3 -22 1 -22 -112z"/>
<path d="M2370 315 l0 -115 90 0 c108 0 122 18 18 22 l-73 3 -3 38 -3 37 70 0
c56 0 71 3 71 15 0 11 -16 15 -67 17 l-68 3 0 35 0 35 73 3 c104 4 90 22 -18
22 l-90 0 0 -115z"/>
<path d="M2590 315 c0 -96 3 -115 15 -115 12 0 15 17 15 91 0 49 4 88 8 85 5
-3 32 -44 61 -91 37 -59 58 -85 72 -85 18 0 19 8 19 115 0 94 -3 115 -15 115
-11 0 -15 -19 -17 -90 l-3 -91 -55 90 c-43 70 -60 90 -77 91 -23 0 -23 -2 -23
-115z"/>
</g>
</svg>
